<svg xmlns="http://www.w3.org/2000/svg" id="Layer_1" viewBox="0 0 782 313"><defs><style>.cls-1{fill:#ff7f7a}</style></defs><path d="M726.91 27.46a48.8 48.8 0 0 0-4.53-11.14c-1.15-2.06-4.32-.21-3.16 1.85 1.81 3.25 3.19 6.66 4.16 10.26.61 2.28 4.15 1.31 3.53-.97M735.13 28.44q1.8-5.685 4.02-11.22c.88-2.19-2.66-3.14-3.53-.97a159 159 0 0 0-4.02 11.22c-.71 2.25 2.82 3.22 3.53.97M739.63 34.68c1.98-.95 4.01-1.75 6.1-2.41 2.24-.71 1.28-4.25-.97-3.53-2.39.76-4.71 1.69-6.98 2.78-2.13 1.02-.27 4.18 1.85 3.16" class="cls-1"/><path d="M29.5 286.54c14.22-19.56 29.81-38.15 48.23-53.91 19.71-16.85 43.21-31.95 68.93-37.2 28.38-5.8 58.2.73 86.54 3.77 28.41 3.05 56.94 5.05 85.5 5.85 56.55 1.58 113.4-1.52 169.13-11.54 50.74-9.12 100.85-24.35 146.36-48.89 40.18-21.67 80.76-52.54 99.04-95.78 1.27-3.01.88-6.39-2.15-8.21-2.5-1.5-6.95-.83-8.21 2.15-15.97 37.76-49.47 65.22-84.04 85.47-44.14 25.85-93.54 41.82-143.54 51.68-55.59 10.96-112.52 14.46-169.11 13.3-28.59-.58-57.16-2.4-85.61-5.26s-57.66-9.09-86.34-5.78c-29.99 3.46-56.67 19.03-79.82 37.68-21.46 17.28-39.14 38.42-55.27 60.62-4.55 6.26 5.86 12.25 10.36 6.06Z" style="fill:#3ae668"/></svg>