<svg xmlns="http://www.w3.org/2000/svg" id="Layer_1" viewBox="0 0 782 313"><defs><style>.cls-1{fill:#ff7f7a}</style></defs><path d="M758.91 31.46a48.8 48.8 0 0 0-4.53-11.14c-1.15-2.06-4.32-.21-3.16 1.85 1.81 3.25 3.19 6.66 4.16 10.26.61 2.28 4.15 1.31 3.53-.97M767.13 32.44q1.8-5.685 4.02-11.22c.88-2.19-2.66-3.14-3.53-.97a159 159 0 0 0-4.02 11.22c-.71 2.25 2.82 3.22 3.53.97M771.63 38.68c1.98-.95 4.01-1.75 6.1-2.41 2.24-.71 1.28-4.25-.97-3.53-2.39.76-4.71 1.69-6.98 2.78-2.13 1.02-.27 4.18 1.85 3.16" class="cls-1"/><path d="M17.5 286.54c9.77-13.59 17.02-28.85 26.56-42.62 11.97-17.29 26.96-32.69 46.21-41.71 28.4-13.32 58.6-6.99 88.4-3.43 36.53 4.36 73.18 7.74 109.92 9.62 56.63 2.9 113.54 2.2 169.88-4.57 51.16-6.15 102.87-16.2 151.39-33.78 31.36-11.36 61.92-25.86 89.29-45.05 22.79-15.98 43.92-35.35 58.48-59.31 3.28-5.4 6.15-11.03 8.62-16.85 1.27-3.01.88-6.39-2.15-8.21-2.5-1.5-6.95-.83-8.21 2.15-10.53 24.9-28.91 45.27-49.76 62.1-25.07 20.23-54.22 35.67-84 47.69-49.16 19.84-102.16 31.18-154.63 38.12-55.12 7.29-110.89 8.6-166.39 6.29-36.22-1.51-72.36-4.53-108.38-8.57-31.65-3.55-64.44-11.65-95.7-1.63-21.69 6.95-39.88 21.17-54.08 38.74-11.66 14.43-20.51 30.55-30.15 46.33-1.79 2.94-3.64 5.84-5.65 8.64-4.52 6.28 5.89 12.28 10.36 6.06Z" style="fill:#3ae668"/></svg>