<?xml version="1.0" encoding="UTF-8"?><svg id="Layer_1" xmlns="http://www.w3.org/2000/svg" xmlns:xlink="http://www.w3.org/1999/xlink" viewBox="0 0 400 400"><defs><style>.cls-1{fill:#ff7f7a;}.cls-2{fill:#3ae668;}.cls-3{fill:#ff9284;}.cls-4{clip-path:url(#clippath-1);}.cls-5{clip-path:url(#clippath-2);}.cls-6{fill:#5b58d1;}.cls-7{fill:#c75467;}.cls-8{fill:#24af69;}.cls-9{clip-path:url(#clippath);}.cls-10{fill:#7774f1;}</style><clipPath id="clippath"><path class="cls-2" d="M41.14,347.53c12.6,7.14,10.47,13.41,8.16,19.82-2.31,6.42-12.21,28.18-23.16,26.21-8.68-1.56-18.52-12.71-19.91-20.65-.9-5.14,9.23-27.77,18.93-28.62,6.5-.57,9.15-.62,15.97,3.24Z"/></clipPath><clipPath id="clippath-1"><path class="cls-10" d="M234.17,347.91s-22.09,5.9-23.66,8.99,3.47,37.09,6.73,38.9,35.07-5.66,36.51-6.76c1.44-1.1,2.41-22,.45-23.8s-17.07-15.94-20.03-17.32Z"/></clipPath><clipPath id="clippath-2"><path class="cls-1" d="M126.1,347.88c-3.08-.64-9.21,6.06-10.3,8.68s-4.83,25.13-2.88,28.28,13.51,11.54,16.55,11.84,32.22-9.79,32.03-15.54c-.18-5.42-6.01-12.96-10.41-16.89-3.09-2.76-18.73-15.07-24.99-16.37Z"/></clipPath></defs><path class="cls-2" d="M41.14,347.53c12.6,7.14,10.47,13.41,8.16,19.82-2.31,6.42-12.21,28.18-23.16,26.21-8.68-1.56-18.52-12.71-19.91-20.65-.9-5.14,9.23-27.77,18.93-28.62,6.5-.57,9.15-.62,15.97,3.24Z"/><g class="cls-9"><path class="cls-8" d="M8.99,387.04s13.26,1.65,27.07-7.19c13.81-8.84,18.44-21.56,18.44-21.56l.18,19.17,1.64,25.49-37.82,6.15-9.51-22.06Z"/></g><path class="cls-10" d="M234.17,347.91s-22.09,5.9-23.66,8.99,3.47,37.09,6.73,38.9,35.07-5.66,36.51-6.76c1.44-1.1,2.41-22,.45-23.8s-17.07-15.94-20.03-17.32Z"/><g class="cls-4"><path class="cls-6" d="M254.2,365.23c-1.5,5.1-10.46,12.8-14.35,14.9-3.88,2.1-22.61,15.67-22.61,15.67l19.9,8.46,29.47-11.85-12.42-27.18"/></g><path class="cls-1" d="M126.1,347.88c-3.08-.64-9.21,6.06-10.3,8.68s-4.83,25.13-2.88,28.28,13.51,11.54,16.55,11.84,32.22-9.79,32.03-15.54c-.18-5.42-6.01-12.96-10.41-16.89-3.09-2.76-18.73-15.07-24.99-16.37Z"/><g class="cls-5"><path class="cls-7" d="M119.84,379.99c7.24.5,18.19,3.74,27.09,5.01,8.9,1.27,28.34-4.82,33.99-7.65,5.65-2.83,5.87,4.05,5.87,4.05l-8.07,26.26-17.99,1.77-50.74-19.08,9.86-10.36"/><polygon class="cls-3" points="117.28 333.31 102.04 339.58 105.8 394.11 119.72 380.04 117.28 333.31"/></g><rect class="cls-2" x="5.5" y="109" width="47" height="225" rx="23.5" ry="23.5"/><rect class="cls-1" x="107.5" y="2" width="47" height="332" rx="23.5" ry="23.5"/><rect class="cls-10" x="209.5" y="197" width="47" height="137" rx="23.5" ry="23.5"/></svg>