<svg xmlns="http://www.w3.org/2000/svg" xmlns:xlink="http://www.w3.org/1999/xlink" viewBox="0 0 400 400"><defs><linearGradient id="linear-gradient" x1="9.16" x2="280.26" y1="306.84" y2="306.84" gradientUnits="userSpaceOnUse"><stop offset="0" stop-color="#dcdcf9"/><stop offset=".55" stop-color="#ccccea"/><stop offset=".72" stop-color="#c9c9e9"/><stop offset=".8" stop-color="#c2c2e6"/><stop offset=".86" stop-color="#b5b5e0"/><stop offset=".91" stop-color="#a3a3d9"/><stop offset=".95" stop-color="#8c8ccf"/><stop offset=".99" stop-color="#7070c4"/><stop offset="1" stop-color="#6464bf"/></linearGradient><linearGradient xlink:href="#linear-gradient" id="linear-gradient-2" x1="22.86" x2="293.95" y1="267.85" y2="267.85"/><linearGradient xlink:href="#linear-gradient" id="linear-gradient-3" x1="2.38" x2="273.48" y1="233.95" y2="233.95"/><clipPath id="clippath"><path d="M68.87 26.52c-14.61 1.89-31.5 40.95-32.26 54.22-.77 13.27 17.15 118.66 30.61 129.61 13.45 10.94 77.52 30.37 91.41 27.02 13.9-3.35 127.59-92.75 117.93-117.9-9.12-23.74-46.48-48.14-71.96-58.79-17.9-7.48-106.01-38-135.73-34.15Z" class="cls-1"/></clipPath><style>.cls-1{fill:#ff7f7a}.cls-2{fill:#7774f1;mix-blend-mode:multiply;opacity:.16}.cls-5{fill:#eef}</style></defs><g style="isolation:isolate"><g id="Layer_1"><ellipse cx="197.33" cy="319.45" class="cls-2" rx="159.35" ry="37.29" transform="rotate(-1.6 197.883 320.08)"/><path d="M280.23 294.46c-1.23-19.89-61.43-35.92-135.52-35.92S10.42 274.56 9.19 294.46h-.03v23.53h.03c-.01.21-.03.41-.03.62 0 20.18 60.69 36.54 135.55 36.54s135.55-16.36 135.55-36.54c0-.21-.02-.41-.03-.62h.03v-23.53z" style="fill:url(#linear-gradient)"/><path d="m134.61 315.59 86.45-14.79 58.28-9.94c-7.75-18.19-65.05-32.32-134.62-32.32-74.86 0-135.55 16.36-135.55 36.54s60.69 36.54 135.55 36.54c48.27 0 90.62-6.81 114.64-17.05-16.76 6.63-124.74 1.03-124.74 1.03Z" class="cls-5"/><path d="M280.26 295.07c0-1.43-.34-2.83-.92-4.21l-58.28 9.94-86.45 14.79s107.98 5.6 124.74-1.03c13.23-5.64 20.91-12.32 20.91-19.49" class="cls-5"/><path d="M280.26 295.07c0-1.43-.34-2.83-.92-4.21l-58.28 9.94-86.45 14.79s107.98 5.6 124.74-1.03c13.23-5.64 20.91-12.32 20.91-19.49M280.87 319.6h-.13z" class="cls-2"/><path d="M259.35 314.56c.12-.05.24-.09.35-.14 15.61-6.84 20.43-1.75 20.56 4.18s0-23.53 0-23.53c0 7.17-7.69 13.85-20.91 19.49" class="cls-2"/><path d="M293.92 255.47c-1.23-19.89-61.43-35.92-135.52-35.92S24.11 235.57 22.89 255.47h-.03V279h.03c-.01.21-.03.41-.03.62 0 20.18 60.69 36.54 135.55 36.54s135.55-16.36 135.55-36.54c0-.21-.02-.41-.03-.62h.03v-23.53h-.03Z" style="fill:url(#linear-gradient-2)"/><path d="M282.21 269.55c-11.95 2.44-35.68 16-127 10.27l111.01-45.87c-24.76-8.75-63.83-14.4-107.82-14.4-74.86 0-135.55 16.36-135.55 36.54s60.69 36.54 135.55 36.54c57.59 0 106.75-9.68 126.39-23.34-.8 0-1.64.07-2.59.26Z" class="cls-5"/><path d="M284.8 269.28c9.29-.08 9.06 11.41 9.06 11.41l.1-19.93v-4.68c0 4.66-3.27 9.1-9.16 13.2" class="cls-2"/><path d="m266.22 233.95-111.01 45.87c91.32 5.73 115.05-7.83 127-10.27.95-.19 1.79-.26 2.59-.26 5.89-4.1 9.16-8.54 9.16-13.2 0-8.32-10.34-15.99-27.73-22.14Z" class="cls-5"/><path d="m266.22 233.95-111.01 45.87c108.23.64 115.05-7.83 127-10.27.95-.19 1.79-.26 2.59-.26 5.89-4.1 9.16-8.54 9.16-13.2 0-8.32-10.34-15.99-27.73-22.14Z" class="cls-2"/><path d="M273.45 221.56c-1.23-19.89-61.43-35.92-135.52-35.92S3.64 201.67 2.41 221.56h-.03v23.53h.03c-.01.21-.03.41-.03.62 0 20.18 60.69 36.54 135.55 36.54s135.55-16.36 135.55-36.54c0-.21-.02-.41-.03-.62h.03v-23.53z" style="fill:url(#linear-gradient-3)"/><ellipse cx="137.93" cy="222.18" class="cls-5" rx="135.55" ry="36.54"/><path d="M137.93 185.65c-28.25 0-54.48 2.33-76.19 6.32 3.55 10.19 17.78 21.91 34.72 26.65.96.27 47.89 19.05 58.67 19.13 27.7.21 71.99-1.01 111.93-4.44 4.15-3.51 6.41-7.24 6.41-11.12 0-20.18-60.69-36.54-135.55-36.54Z" class="cls-2"/><path d="M68.87 26.52c-14.61 1.89-31.5 40.95-32.26 54.22-.77 13.27 17.15 118.66 30.61 129.61 13.45 10.94 77.52 30.37 91.41 27.02 13.9-3.35 127.59-92.75 117.93-117.9-9.12-23.74-46.48-48.14-71.96-58.79-17.9-7.48-106.01-38-135.73-34.15Z" class="cls-1"/><g style="clip-path:url(#clippath)"><path d="M90.37 178.25c32.82-8.89 86.24-11.35 127.6-19.38s118.05-64.82 138.71-86c20.67-21.18 32.17 8.92 32.17 8.92l4.53 128.62-76.91 35.43L62.6 239.2l27.75-60.96" style="fill:#c75467"/><path d="m7.48-24.47-57.86 51.16 100.25 235.6 40.06-83.67z" style="fill:#ff9284"/></g><path d="M267.07 233.3s5.94 4.73 6.41 12.58l-.05-22.59s-.67 5.89-6.37 10.01Z" class="cls-2"/></g></g></svg>