<svg viewBox="0 0 400 400" xmlns="http://www.w3.org/2000/svg" xmlns:xlink="http://www.w3.org/1999/xlink"><clipPath id="a"><path d="m344.32 147.86c45.14 6.03 46.29 26.82 47.08 48.24.79 21.43-2.54 96.54-36.79 103.65-27.14 5.63-68.95-15.35-82.32-36.87-8.66-13.93-5.69-91.85 21.64-105.72 18.29-9.28 25.97-12.57 50.4-9.31z"/></clipPath><clipPath id="b"><path d="m29.82 144.85c13.41 1.79 13.75 7.96 13.98 14.33.23 6.36-.75 28.67-10.93 30.78-8.06 1.67-20.47-4.56-24.45-10.95-2.57-4.14-1.69-27.28 6.43-31.39 5.43-2.76 7.71-3.73 14.97-2.76z"/></clipPath><clipPath id="c"><path d="m117.28 4.29s-56.78 42.58-57.72 53.32c-.94 10.73 52.97 102.8 64.45 104.22 11.49 1.42 94.44-56.95 97.31-61.79s-18.55-66.15-26.29-69.08-67.64-26.14-77.76-26.67z"/></clipPath><clipPath id="d"><path d="m257.1 328.84s-17.96 13.47-18.25 16.86c-.3 3.39 16.75 32.51 20.39 32.96 3.63.45 29.87-18.01 30.78-19.54s-5.87-20.92-8.31-21.85-21.39-8.27-24.59-8.44z"/></clipPath><clipPath id="e"><path d="m54.78 251.69c-10 1.8-20.32 29.28-20.4 38.45s15.84 81.19 25.48 88.28 54.45 18.31 63.91 15.53 84.79-68.23 77.28-85.24c-7.09-16.05-33.66-31.6-51.58-38.08-12.59-4.55-74.34-22.6-94.69-18.94"/></clipPath><clipPath id="f"><path d="m276.88 46c-2.72.49-5.54 7.98-5.56 10.48s4.31 22.12 6.94 24.05 14.83 4.99 17.41 4.23 23.1-18.59 21.05-23.22c-1.93-4.37-9.17-8.61-14.05-10.37-3.43-1.24-20.25-6.16-25.79-5.16z"/></clipPath><path d="m186 214.5 90-127m-15 136-75-9m63.61 114.34-63.61-114.34m-30 52 30-52m-19.92-67.87 19.42 67.37-138.5-39.5" fill="none" stroke="#e9e9fd" stroke-miterlimit="10" stroke-width="5"/><circle cx="185.5" cy="214" fill="#fff" r="23.5"/><path d="m344.32 147.86c45.14 6.03 46.29 26.82 47.08 48.24.79 21.43-2.54 96.54-36.79 103.65-27.14 5.63-68.95-15.35-82.32-36.87-8.66-13.93-5.69-91.85 21.64-105.72 18.29-9.28 25.97-12.57 50.4-9.31z" fill="#3ae668"/><path clip-path="url(#a)" d="m296.92 300.82s40.62-10.74 70.53-52.74c29.92-42 28.47-84.55 28.47-84.55l23.04 55.71 34.7 72.43-103.11 62.33-53.64-53.19z" fill="#24af69"/><path d="m29.82 144.85c13.41 1.79 13.75 7.96 13.98 14.33.23 6.36-.75 28.67-10.93 30.78-8.06 1.67-20.47-4.56-24.45-10.95-2.57-4.14-1.69-27.28 6.43-31.39 5.43-2.76 7.71-3.73 14.97-2.76z" fill="#3ae668"/><path clip-path="url(#b)" d="m15.74 190.28s12.06-3.19 20.94-15.66 8.45-25.11 8.45-25.11l6.84 16.54 10.31 21.51-30.62 18.51-15.93-15.79z" fill="#24af69"/><path d="m117.28 4.29s-56.78 42.58-57.72 53.32c-.94 10.73 52.97 102.8 64.45 104.22 11.49 1.42 94.44-56.95 97.31-61.79s-18.55-66.15-26.29-69.08-67.64-26.14-77.76-26.67z" fill="#7774f1"/><path clip-path="url(#c)" d="m195.04 30.96c1.59 16.43-15.31 48.98-24.05 59.54-8.75 10.56-46.97 71.33-46.97 71.33l67.12 1.29 71.16-68.27z" fill="#5b58d1"/><path d="m257.1 328.84s-17.96 13.47-18.25 16.86c-.3 3.39 16.75 32.51 20.39 32.96 3.63.45 29.87-18.01 30.78-19.54s-5.87-20.92-8.31-21.85-21.39-8.27-24.59-8.44z" fill="#7774f1"/><path clip-path="url(#d)" d="m281.7 337.27c.5 5.2-4.84 15.49-7.61 18.83s-14.85 22.56-14.85 22.56l21.23.41 22.5-21.59z" fill="#5b58d1"/><path d="m54.78 251.69c-10 1.8-20.32 29.28-20.4 38.45s15.84 81.19 25.48 88.28 54.45 18.31 63.91 15.53 84.79-68.23 77.28-85.24c-7.09-16.05-33.66-31.6-51.58-38.08-12.59-4.55-74.34-22.6-94.69-18.94" fill="#ff7f7a"/><g clip-path="url(#e)"><path d="m74.73 355.53c22.32-7.24 59.05-10.74 87.28-17.67s79.16-48.66 92.68-63.96c13.53-15.3 22.47 5.06 22.47 5.06l7.47 88.48-51.8 27.02-175.18 4.01 17.06-42.95" fill="#c75467"/><path d="m10.75 218.63-38.15 37.21 77.07 158.97 24.77-59.01z" fill="#ff9284"/></g><path d="m276.88 46c-2.72.49-5.54 7.98-5.56 10.48s4.31 22.12 6.94 24.05 14.83 4.99 17.41 4.23 23.1-18.59 21.05-23.22c-1.93-4.37-9.17-8.61-14.05-10.37-3.43-1.24-20.25-6.16-25.79-5.16z" fill="#ff7f7a"/><g clip-path="url(#f)"><path d="m282.32 74.28c6.08-1.97 16.09-2.93 23.78-4.81s21.56-13.26 25.25-17.42 6.12 1.38 6.12 1.38l2.04 24.1-14.11 7.36-47.72 1.09 4.65-11.7" fill="#c75467"/><path d="m264.89 36.99-10.39 10.14 20.99 43.3 6.75-16.07z" fill="#ff9284"/></g><circle cx="185.5" cy="214" fill="none" r="23.5" stroke="#e9e9fd" stroke-miterlimit="10" stroke-width="5"/></svg>